<svg width="20" height="15" viewBox="0 0 20 15" fill="none" xmlns="http://www.w3.org/2000/svg">
<g clip-path="url(#clip0_275_17)">
<path fill-rule="evenodd" clip-rule="evenodd" d="M0 0V15H20V0H0Z" fill="#2E42A5"/>
<mask id="mask0_275_17" style="mask-type:luminance" maskUnits="userSpaceOnUse" x="0" y="0" width="20" height="15">
<path fill-rule="evenodd" clip-rule="evenodd" d="M0 0V15H20V0H0Z" fill="white"/>
</mask>
<g mask="url(#mask0_275_17)">
<path d="M-2.22656 13.9281L2.17469 15.79L20.0997 2.02375L22.4216 -0.742505L17.7153 -1.36438L10.4041 4.5675L4.51906 8.565L-2.22656 13.9281Z" fill="white"/>
<path d="M-1.625 15.2325L0.618125 16.3125L21.5875 -0.99939H18.4394L-1.625 15.2325Z" fill="#F50100"/>
<path d="M22.2262 13.9281L17.825 15.79L-0.0999999 2.02375L-2.42188 -0.742505L2.28437 -1.36438L9.59562 4.5675L15.4806 8.565L22.2262 13.9281Z" fill="white"/>
<path d="M22.0773 14.8643L19.8348 15.9443L10.9061 8.53185L8.25859 7.70435L-2.64453 -0.733154H0.504219L11.4005 7.50435L14.2948 8.49685L22.0773 14.8643Z" fill="#F50100"/>
<path fill-rule="evenodd" clip-rule="evenodd" d="M12.3633 -1.25H7.64078V5H-1.23047V10H7.64078V16.25H12.3633V10H21.2695V5H12.3633V-1.25Z" fill="#F50100"/>
<mask id="mask1_275_17" style="mask-type:luminance" maskUnits="userSpaceOnUse" x="-2" y="-2" width="24" height="19">
<path fill-rule="evenodd" clip-rule="evenodd" d="M12.3633 -1.25H7.64078V5H-1.23047V10H7.64078V16.25H12.3633V10H21.2695V5H12.3633V-1.25Z" fill="white"/>
</mask>
<g mask="url(#mask1_275_17)">
<path d="M7.64078 -1.25V-2.5H6.39078V-1.25H7.64078ZM12.3633 -1.25H13.6133V-2.5H12.3633V-1.25ZM7.64078 5V6.25H8.89078V5H7.64078ZM-1.23047 5V3.75H-2.48047V5H-1.23047ZM-1.23047 10H-2.48047V11.25H-1.23047V10ZM7.64078 10H8.89078V8.75H7.64078V10ZM7.64078 16.25H6.39078V17.5H7.64078V16.25ZM12.3633 16.25V17.5H13.6133V16.25H12.3633ZM12.3633 10V8.75H11.1133V10H12.3633ZM21.2695 10V11.25H22.5195V10H21.2695ZM21.2695 5H22.5195V3.75H21.2695V5ZM12.3633 5H11.1133V6.25H12.3633V5ZM7.64078 0H12.3633V-2.5H7.64078V0ZM8.89078 5V-1.25H6.39078V5H8.89078ZM-1.23047 6.25H7.64078V3.75H-1.23047V6.25ZM0.0195312 10V5H-2.48047V10H0.0195312ZM7.64078 8.75H-1.23047V11.25H7.64078V8.75ZM8.89078 16.25V10H6.39078V16.25H8.89078ZM12.3633 15H7.64078V17.5H12.3633V15ZM11.1133 10V16.25H13.6133V10H11.1133ZM21.2695 8.75H12.3633V11.25H21.2695V8.75ZM20.0195 5V10H22.5195V5H20.0195ZM12.3633 6.25H21.2695V3.75H12.3633V6.25ZM11.1133 -1.25V5H13.6133V-1.25H11.1133Z" fill="white"/>
</g>
</g>
</g>
<defs>
<clipPath id="clip0_275_17">
<rect width="20" height="15" fill="white"/>
</clipPath>
</defs>
</svg>
